<svg width="165" height="173" viewBox="0 0 165 173" fill="none" xmlns="http://www.w3.org/2000/svg">
<g id="Group 1">
<g id="Vector">
<mask id="path-1-inside-1_129_689" fill="white">
<path fill-rule="evenodd" clip-rule="evenodd" d="M71.75 172.668C111.1 172.668 143 134.053 143 86.418C143 38.7834 111.1 0.167969 71.75 0.167969C32.3997 0.167969 0.5 38.7834 0.5 86.418C0.5 134.053 32.3997 172.668 71.75 172.668ZM70.7037 152.933C71.2613 152.947 71.7137 152.493 71.7137 151.935V118.228H71.7084C57.9072 118.228 46.7192 103.977 46.7192 86.3965C46.7192 68.8166 57.9072 54.5652 71.7084 54.5652H71.7137V20.8807C71.7137 20.3229 71.2613 19.8694 70.7037 19.8831C64.1881 20.0436 57.7504 21.7559 51.7242 24.9356C45.3867 28.2794 39.6283 33.1805 34.7779 39.359C29.9274 45.5376 26.0798 52.8726 23.4547 60.9453C20.8297 69.018 19.4786 77.6702 19.4786 86.408C19.4786 95.1458 20.8297 103.798 23.4547 111.871C26.0798 119.943 29.9274 127.278 34.7779 133.457C39.6283 139.636 45.3867 144.537 51.7241 147.88C57.7504 151.06 64.1881 152.772 70.7037 152.933ZM71.7141 118.236C85.5153 118.236 96.7033 103.984 96.7033 86.4042C96.7033 68.8242 85.5153 54.5729 71.7141 54.5729V118.236Z"/>
</mask>
<path d="M70.7037 152.933L70.7406 151.433H70.7406L70.7037 152.933ZM71.7137 118.228H73.2137V116.728H71.7137V118.228ZM71.7137 54.5652V56.0652H73.2137V54.5652H71.7137ZM70.7037 19.8831L70.6667 18.3836L70.7037 19.8831ZM51.7242 24.9356L51.0242 23.6089L51.7242 24.9356ZM34.7779 39.359L35.9577 40.2853L34.7779 39.359ZM34.7779 133.457L33.598 134.383L34.7779 133.457ZM51.7241 147.88L51.0242 149.207L51.7241 147.88ZM71.7141 118.236H70.2141V119.736H71.7141V118.236ZM71.7141 54.5729V53.0729H70.2141V54.5729H71.7141ZM141.5 86.418C141.5 133.505 110.016 171.168 71.75 171.168V174.168C112.184 174.168 144.5 134.6 144.5 86.418H141.5ZM71.75 1.66797C110.016 1.66797 141.5 39.3309 141.5 86.418H144.5C144.5 38.2359 112.184 -1.33203 71.75 -1.33203V1.66797ZM2 86.418C2 39.3309 33.4836 1.66797 71.75 1.66797V-1.33203C31.3159 -1.33203 -1 38.2359 -1 86.418H2ZM71.75 171.168C33.4836 171.168 2 133.505 2 86.418H-1C-1 134.6 31.3159 174.168 71.75 174.168V171.168ZM70.2137 151.935C70.2137 151.675 70.4315 151.426 70.7406 151.433L70.6667 154.432C72.0912 154.468 73.2137 153.312 73.2137 151.935H70.2137ZM70.2137 118.228V151.935H73.2137V118.228H70.2137ZM71.7084 119.728H71.7137V116.728H71.7084V119.728ZM45.2192 86.3965C45.2192 104.447 56.7609 119.728 71.7084 119.728V116.728C59.0535 116.728 48.2192 103.507 48.2192 86.3965H45.2192ZM71.7084 53.0652C56.7609 53.0652 45.2192 68.3466 45.2192 86.3965H48.2192C48.2192 69.2866 59.0535 56.0652 71.7084 56.0652V53.0652ZM71.7137 53.0652H71.7084V56.0652H71.7137V53.0652ZM70.2137 20.8807V54.5652H73.2137V20.8807H70.2137ZM70.7406 21.3827C70.4315 21.3903 70.2137 21.1414 70.2137 20.8807H73.2137C73.2137 19.5044 72.0912 18.3485 70.6667 18.3836L70.7406 21.3827ZM52.4241 26.2622C58.255 23.1857 64.4667 21.5372 70.7406 21.3827L70.6667 18.3836C63.9095 18.55 57.2459 20.3262 51.0242 23.6089L52.4241 26.2622ZM35.9577 40.2853C40.6908 34.2563 46.2903 29.4986 52.4241 26.2622L51.0242 23.6089C44.4831 27.0601 38.5659 32.1046 33.598 38.4328L35.9577 40.2853ZM24.8812 61.4091C27.4562 53.4903 31.2244 46.3146 35.9577 40.2853L33.598 38.4328C28.6304 44.7606 24.7033 52.2549 22.0282 60.4814L24.8812 61.4091ZM20.9786 86.408C20.9786 77.8231 22.3063 69.3276 24.8812 61.4091L22.0282 60.4814C19.3531 68.7083 17.9786 77.5174 17.9786 86.408H20.9786ZM24.8812 111.407C22.3063 103.488 20.9786 94.993 20.9786 86.408H17.9786C17.9786 95.2987 19.3531 104.108 22.0282 112.335L24.8812 111.407ZM35.9577 132.531C31.2244 126.501 27.4562 119.326 24.8812 111.407L22.0282 112.335C24.7033 120.561 28.6304 128.055 33.598 134.383L35.9577 132.531ZM52.4241 146.554C46.2903 143.317 40.6908 138.56 35.9577 132.531L33.598 134.383C38.5659 140.711 44.4831 145.756 51.0242 149.207L52.4241 146.554ZM70.7406 151.433C64.4667 151.279 58.2549 149.63 52.4241 146.554L51.0242 149.207C57.2459 152.49 63.9095 154.266 70.6667 154.432L70.7406 151.433ZM95.2033 86.4042C95.2033 103.514 84.369 116.736 71.7141 116.736V119.736C86.6616 119.736 98.2033 104.454 98.2033 86.4042H95.2033ZM71.7141 56.0729C84.369 56.0729 95.2033 69.2942 95.2033 86.4042H98.2033C98.2033 68.3543 86.6616 53.0729 71.7141 53.0729V56.0729ZM73.2141 118.236V54.5729H70.2141V118.236H73.2141Z" fill="white" mask="url(#path-1-inside-1_129_689)"/>
</g>
<g id="Subtract">
<mask id="path-3-inside-2_129_689" fill="white">
<path fill-rule="evenodd" clip-rule="evenodd" d="M93.6623 172.668C133.013 172.668 164.912 134.052 164.912 86.4179C164.912 38.7834 133.013 0.16791 93.6623 0.16791C93.0276 0.16791 91.5023 0.148363 89.4926 0.122607C82.6669 0.0351341 70.2534 -0.123951 68.1623 0.167907C68.1079 0.175502 68.0538 0.183173 68 0.190919C68.5526 0.175606 69.1067 0.167908 69.6623 0.167908C109.013 0.167908 140.912 38.7833 140.912 86.4179C140.912 134.052 109.013 172.668 69.6623 172.668C69.1264 172.668 68.5919 172.661 68.0589 172.646C68.0932 172.654 68.1277 172.661 68.1623 172.668H69.6623H93.6623Z"/>
</mask>
<path d="M89.4926 0.122607L89.4734 1.62248L89.4926 0.122607ZM68.1623 0.167907L68.3697 1.65351H68.3697L68.1623 0.167907ZM68 0.190919L67.7862 -1.29376L68.0416 1.69034L68 0.190919ZM68.0589 172.646L68.099 171.147L67.7522 174.115L68.0589 172.646ZM68.1623 172.668L67.8604 174.137L68.0098 174.168H68.1623V172.668ZM163.412 86.4179C163.412 133.505 131.929 171.168 93.6623 171.168V174.168C134.096 174.168 166.412 134.6 166.412 86.4179H163.412ZM93.6623 1.66791C131.929 1.66791 163.412 39.3309 163.412 86.4179H166.412C166.412 38.2358 134.096 -1.33209 93.6623 -1.33209V1.66791ZM89.4734 1.62248C91.4757 1.64814 93.0151 1.66791 93.6623 1.66791V-1.33209C93.0401 -1.33209 91.529 -1.35142 89.5118 -1.37727L89.4734 1.62248ZM68.3697 1.65351C68.7819 1.59596 69.8483 1.55042 71.4412 1.52521C72.9915 1.50068 74.9415 1.4959 77.0469 1.503C81.2566 1.51719 86.0592 1.57873 89.4734 1.62248L89.5118 -1.37727C86.1003 -1.42099 81.2833 -1.48273 77.057 -1.49698C74.9445 -1.50411 72.9724 -1.4994 71.3937 -1.47441C69.8577 -1.4501 68.5882 -1.40608 67.955 -1.31769L68.3697 1.65351ZM68.2138 1.6756C68.2654 1.66817 68.3174 1.6608 68.3697 1.65351L67.955 -1.31769C67.8984 -1.3098 67.8422 -1.30182 67.7862 -1.29376L68.2138 1.6756ZM68.0416 1.69034C68.5803 1.67541 69.1205 1.66791 69.6623 1.66791V-1.33209C69.0928 -1.33209 68.5249 -1.3242 67.9584 -1.3085L68.0416 1.69034ZM69.6623 1.66791C107.929 1.66791 139.412 39.3309 139.412 86.4179H142.412C142.412 38.2358 110.096 -1.33209 69.6623 -1.33209V1.66791ZM139.412 86.4179C139.412 133.505 107.929 171.168 69.6623 171.168V174.168C110.096 174.168 142.412 134.6 142.412 86.4179H139.412ZM69.6623 171.168C69.1398 171.168 68.6187 171.161 68.099 171.147L68.0188 174.146C68.5652 174.161 69.1131 174.168 69.6623 174.168V171.168ZM68.4642 171.199C68.4308 171.192 68.398 171.185 68.3656 171.178L67.7522 174.115C67.7885 174.122 67.8246 174.13 67.8604 174.137L68.4642 171.199ZM69.6623 171.168H68.1623V174.168H69.6623V171.168ZM93.6623 171.168H69.6623V174.168H93.6623V171.168Z" fill="white" mask="url(#path-3-inside-2_129_689)"/>
</g>
</g>
</svg>
